<?xml version="1.0" encoding="UTF-8"?>
<svg xmlns="http://www.w3.org/2000/svg" xmlns:xlink="http://www.w3.org/1999/xlink" width="250px" height="150px" viewBox="0 0 250 150" version="1.1">
<g id="surface1">
<path style=" stroke:none;fill-rule:nonzero;fill:rgb(0%,0%,0%);fill-opacity:1;" d="M 161.890625 33.484375 C 156.933594 34.277344 152.320312 37.089844 149.925781 40.765625 C 148.363281 43.167969 148.070312 43.945312 148.097656 45.804688 C 148.097656 47.796875 148.339844 47.738281 143.996094 46.816406 C 140.527344 46.082031 137.671875 45.25 134.886719 44.179688 C 133.8125 43.753906 132.398438 43.226562 131.714844 43.007812 C 131.054688 42.773438 129.394531 42.128906 128.050781 41.570312 C 122.875 39.433594 121.363281 38.875 118.53125 38.070312 C 110.742188 35.859375 104.882812 35.625 99.144531 37.292969 C 94.582031 38.640625 91.113281 42.273438 91.675781 45.144531 C 92.113281 47.605469 94.261719 49.628906 97.460938 50.640625 C 98.585938 50.992188 99.023438 51.035156 100.953125 51.050781 C 103.003906 51.050781 103.273438 51.003906 104.738281 50.535156 C 106.714844 49.90625 108.644531 48.75 109.472656 47.695312 C 110.011719 47.019531 110.109375 46.683594 110.109375 45.644531 C 110.109375 44.957031 109.984375 44.238281 109.839844 44.03125 C 109.132812 43.125 106.59375 43.066406 105.835938 43.945312 C 105.421875 44.429688 105.347656 45.027344 105.714844 44.898438 C 106.128906 44.75 105.980469 45.585938 105.492188 46.230469 C 104.808594 47.136719 103.589844 47.78125 101.953125 48.089844 C 100.148438 48.441406 99.121094 48.324219 97.925781 47.664062 C 96.144531 46.714844 95.386719 45.042969 96.046875 43.519531 C 97.386719 40.339844 100.976562 38.757812 106.8125 38.757812 C 111.574219 38.746094 116.039062 39.828125 123.390625 42.757812 C 127.199219 44.28125 135.058594 47.183594 137.011719 47.796875 C 137.988281 48.089844 140.113281 48.691406 141.722656 49.128906 C 146.117188 50.316406 148.4375 51.003906 148.4375 51.136719 C 148.4375 51.269531 147.265625 51.488281 145.949219 51.621094 C 145.460938 51.679688 144.554688 51.882812 143.921875 52.089844 C 142.796875 52.441406 142.699219 52.441406 140.285156 52.292969 C 135.351562 52 130.882812 52.792969 126.929688 54.667969 C 126.246094 54.988281 125.636719 55.210938 125.5625 55.164062 C 125.488281 55.121094 125.660156 54.519531 125.953125 53.847656 C 126.222656 53.160156 126.464844 52.148438 126.464844 51.578125 C 126.464844 50.667969 126.34375 50.433594 125.34375 49.21875 C 124.046875 47.664062 122.804688 46.859375 120.851562 46.304688 C 119.679688 45.964844 119.191406 45.921875 117.066406 45.921875 C 114.746094 45.921875 114.550781 45.953125 113.085938 46.421875 C 111.035156 47.09375 108.570312 49 107.375 50.859375 C 106.398438 52.382812 106.933594 55.488281 108.324219 56.441406 C 108.546875 56.570312 108.667969 56.71875 108.617188 56.734375 C 108.570312 56.761719 107.421875 56.9375 106.078125 57.113281 C 102.125 57.65625 98.144531 58.300781 96.191406 58.738281 C 95.191406 58.960938 93.214844 59.296875 91.796875 59.472656 C 90.382812 59.648438 87.378906 60.101562 85.082031 60.453125 C 82.8125 60.820312 80.25 61.214844 79.417969 61.347656 C 78.566406 61.480469 77.882812 61.65625 77.882812 61.742188 C 77.882812 61.832031 77.027344 61.960938 75.855469 62.050781 C 74.4375 62.167969 73.21875 62.371094 71.777344 62.769531 C 70.214844 63.179688 69.214844 63.355469 67.75 63.425781 C 65.796875 63.542969 63.671875 63.808594 61.476562 64.21875 L 60.304688 64.421875 L 60.328125 63.089844 C 60.351562 60.847656 60.449219 60.671875 62.0625 60.101562 C 66.285156 58.621094 68.847656 56.117188 68.847656 53.496094 C 68.847656 52.148438 68.335938 51.386719 67.015625 50.667969 C 65.84375 50.023438 64.84375 49.773438 63.355469 49.773438 C 61.742188 49.761719 60.839844 50.054688 58.59375 51.34375 C 57.054688 52.222656 56.421875 52.46875 54.785156 52.851562 C 51.929688 53.511719 49.953125 53.671875 47.242188 53.453125 C 40.429688 52.910156 36.011719 53.570312 31.664062 55.75 C 29.492188 56.851562 27.855469 58.328125 26.90625 60.027344 C 26.074219 61.539062 26.027344 64.027344 26.78125 65.433594 C 28.027344 67.703125 31.738281 69.785156 35.863281 70.515625 C 37.328125 70.78125 41.382812 70.839844 42.652344 70.621094 L 43.433594 70.488281 L 43.410156 80.785156 L 43.410156 91.097656 L 42.75 91.449219 C 42.40625 91.640625 41.429688 92.035156 40.625 92.328125 C 38.792969 92.988281 37.28125 93.835938 36.644531 94.597656 C 35.667969 95.757812 35.546875 98.363281 36.449219 99.417969 C 37.304688 100.386719 39.257812 101.074219 41.1875 101.074219 C 42.894531 101.074219 43.945312 100.855469 46.851562 99.917969 C 48.265625 99.449219 50 98.980469 50.660156 98.875 C 51.34375 98.773438 53.320312 98.40625 55.078125 98.070312 C 56.8125 97.71875 58.910156 97.367188 59.71875 97.265625 C 60.5 97.164062 63.402344 96.636719 66.164062 96.078125 C 68.921875 95.535156 71.800781 94.980469 72.558594 94.847656 C 74.269531 94.570312 74.585938 94.292969 74.367188 93.28125 C 74.269531 92.871094 74.292969 92.578125 74.390625 92.605469 C 77.296875 93.484375 78.710938 93.601562 81.859375 93.25 C 84.449219 92.957031 89.84375 92.035156 90.308594 91.800781 C 90.480469 91.714844 90.894531 91.289062 91.1875 90.863281 C 91.75 90.132812 91.796875 90.101562 92.480469 90.21875 C 92.871094 90.292969 93.410156 90.410156 93.675781 90.496094 C 94.628906 90.820312 97.070312 90.863281 98.949219 90.613281 C 100.5625 90.394531 100.929688 90.277344 102.199219 89.589844 C 103.761719 88.738281 105.664062 86.980469 106.445312 85.679688 C 106.859375 85.003906 106.933594 84.929688 107.082031 85.222656 C 107.8125 86.746094 109.375 87.554688 112.132812 87.789062 C 113.84375 87.933594 114.210938 87.917969 117.601562 87.464844 C 119.582031 87.203125 122.09375 86.761719 123.167969 86.5 C 124.242188 86.234375 125.464844 85.972656 125.878906 85.925781 C 126.832031 85.796875 127.34375 85.472656 127.5625 84.84375 C 127.6875 84.460938 127.832031 84.375 128.125 84.449219 C 131.007812 85.136719 134.765625 85.269531 138.402344 84.8125 C 142.359375 84.332031 145.582031 83.203125 148.535156 81.285156 C 149.730469 80.507812 150.023438 80.390625 150.367188 80.535156 C 151.855469 81.195312 152.246094 81.226562 154.761719 80.976562 C 156.078125 80.828125 157.640625 80.625 158.226562 80.507812 C 158.886719 80.359375 160.179688 80.273438 161.5 80.273438 C 164.648438 80.273438 167.578125 79.703125 171.363281 78.367188 C 173.390625 77.664062 178.417969 75.015625 178.929688 74.398438 C 179.125 74.164062 179.347656 73.972656 179.417969 73.972656 C 179.492188 73.972656 180.199219 74.3125 180.980469 74.707031 C 183.667969 76.082031 186.816406 76.347656 190.941406 75.527344 C 192.992188 75.117188 196.09375 74.0625 197.191406 73.386719 L 197.875 72.964844 L 199.585938 73.167969 C 201.90625 73.460938 204.542969 73.433594 207.082031 73.09375 C 210.597656 72.625 213.378906 71.660156 216.773438 69.667969 C 221.703125 66.78125 224.488281 63.25 225.074219 59.078125 C 225.441406 56.628906 224.390625 54.578125 222.4375 53.875 C 221.949219 53.699219 221.535156 53.554688 221.484375 53.539062 C 221.460938 53.523438 221.410156 52.792969 221.363281 51.914062 C 221.289062 50.359375 221.265625 50.289062 220.167969 48.910156 C 218.285156 46.523438 215.210938 44.851562 211.132812 43.988281 C 208.8125 43.492188 204.980469 43.433594 202.882812 43.855469 C 199.878906 44.457031 196.3125 45.894531 194.582031 47.195312 L 193.652344 47.898438 L 193.480469 47.09375 C 193.410156 46.65625 193.410156 45.351562 193.507812 44.207031 L 193.675781 42.113281 L 194.726562 41.148438 C 196.09375 39.902344 196.410156 39.449219 196.898438 37.953125 C 197.804688 35.347656 196.800781 34.128906 193.800781 34.128906 C 191.089844 34.128906 187.890625 34.90625 182.863281 36.765625 C 182.25 37 180.566406 37.484375 179.078125 37.851562 C 177.613281 38.21875 176.074219 38.640625 175.660156 38.789062 L 174.925781 39.050781 L 174.535156 37.851562 C 173.925781 36.050781 172.191406 34.597656 169.726562 33.851562 C 167.726562 33.25 164.332031 33.089844 161.890625 33.484375 Z M 166.992188 36.589844 C 168.214844 36.957031 168.800781 37.632812 168.578125 38.464844 L 168.410156 39.140625 L 167.699219 38.730469 C 167.042969 38.347656 166.96875 38.335938 165.96875 38.511719 C 165.382812 38.613281 164.550781 38.832031 164.085938 38.980469 C 163.011719 39.359375 162.914062 39.273438 163.867188 38.699219 C 164.867188 38.070312 164.601562 37.953125 163.257812 38.4375 C 161.476562 39.050781 160.15625 40.195312 160.15625 41.089844 C 160.15625 41.453125 160.15625 41.453125 160.621094 41.175781 C 160.890625 41.015625 161.230469 40.75 161.378906 40.574219 C 161.9375 39.945312 161.867188 40.398438 161.28125 41.175781 C 160.9375 41.617188 160.546875 42.507812 160.402344 43.167969 C 160.230469 43.84375 160.011719 44.382812 159.914062 44.382812 C 159.789062 44.382812 159.765625 44.253906 159.839844 44.089844 C 159.914062 43.929688 159.863281 43.796875 159.71875 43.796875 C 159.59375 43.796875 159.425781 43.988281 159.351562 44.238281 C 159.230469 44.546875 158.886719 44.78125 158.15625 45.058594 C 157.570312 45.261719 156.566406 45.660156 155.882812 45.9375 C 155.226562 46.199219 154.199219 46.523438 153.636719 46.640625 L 152.589844 46.859375 L 152.589844 46.421875 C 152.589844 45.527344 154.078125 42.390625 155.152344 41.089844 C 156.664062 39.199219 159.449219 37.367188 161.621094 36.796875 C 163.597656 36.285156 165.675781 36.210938 166.992188 36.589844 Z M 189.625 39.226562 C 188.304688 40.0625 187.769531 40.488281 187.671875 40.867188 C 187.597656 41.148438 187.648438 42.597656 187.792969 44.089844 C 188.109375 47.429688 188.257812 57.085938 187.964844 56.46875 C 187.84375 56.207031 187.816406 56.703125 187.914062 57.714844 C 187.988281 58.636719 188.085938 61.480469 188.109375 64.011719 C 188.183594 69.125 188.28125 69.507812 189.671875 69.929688 C 190.285156 70.121094 190.601562 70.136719 191.457031 70.003906 C 193.703125 69.667969 193.847656 69.667969 193.847656 70.003906 C 193.847656 70.386719 193.140625 71.25 192.945312 71.132812 C 192.871094 71.089844 192.601562 71.207031 192.335938 71.410156 C 191.503906 72.039062 189.476562 72.523438 187.574219 72.539062 C 184.496094 72.554688 182.324219 71.703125 181.398438 70.121094 C 180.933594 69.316406 180.910156 68.90625 180.910156 56.234375 L 180.910156 43.167969 L 180.054688 42.699219 C 179.589844 42.421875 178.832031 42.128906 178.34375 42.039062 C 177.757812 41.921875 177.492188 41.777344 177.492188 41.601562 C 177.492188 41.265625 177.855469 41.132812 180.589844 40.5625 C 181.761719 40.3125 184.007812 39.710938 185.546875 39.226562 C 187.085938 38.730469 189.015625 38.1875 189.820312 38.011719 C 191.917969 37.527344 191.871094 37.851562 189.625 39.226562 Z M 190.675781 38.863281 C 190.675781 38.890625 190.40625 39.125 190.0625 39.402344 C 189.722656 39.683594 189.453125 39.84375 189.453125 39.785156 C 189.453125 39.652344 190.40625 38.816406 190.578125 38.816406 C 190.625 38.816406 190.675781 38.832031 190.675781 38.863281 Z M 172.167969 41.96875 C 172.070312 42.699219 172.167969 42.859375 172.972656 43.621094 C 173.488281 44.078125 174.4375 44.765625 175.074219 45.132812 L 176.269531 45.804688 L 176.269531 46.902344 C 176.269531 47.503906 176.34375 48.515625 176.441406 49.128906 L 176.585938 50.273438 L 175.269531 49.773438 C 172.609375 48.765625 171.535156 48.574219 168.578125 48.558594 L 165.894531 48.558594 L 165.820312 45.730469 C 165.746094 42.625 165.894531 42.230469 167.164062 41.910156 C 167.675781 41.792969 171.046875 41.277344 172.121094 41.175781 C 172.191406 41.160156 172.191406 41.527344 172.167969 41.96875 Z M 188.160156 43.386719 C 188.109375 43.738281 188.0625 43.492188 188.0625 42.847656 C 188.0625 42.203125 188.109375 41.921875 188.160156 42.214844 C 188.207031 42.523438 188.207031 43.050781 188.160156 43.386719 Z M 160.230469 46.464844 C 160.523438 47.167969 160.644531 50.507812 160.449219 51.5625 C 160.230469 52.617188 160.230469 52.632812 160.15625 51.929688 C 160.058594 50.886719 160.058594 50.859375 159.839844 50.742188 C 159.742188 50.683594 159.667969 50.960938 159.644531 51.355469 C 159.621094 51.753906 159.546875 52.71875 159.449219 53.511719 C 159.351562 54.566406 159.375 54.886719 159.570312 54.710938 C 159.71875 54.59375 159.914062 54.492188 160.011719 54.492188 C 160.082031 54.492188 160.9375 53.992188 161.890625 53.394531 C 164.160156 51.957031 165.917969 51.414062 168.214844 51.414062 C 170.800781 51.414062 172.21875 51.738281 173.828125 52.703125 C 175.902344 53.964844 176.585938 54.960938 177.246094 57.714844 L 177.464844 58.667969 L 177.367188 57.714844 C 177.296875 56.96875 177.34375 56.863281 177.515625 57.203125 C 178.175781 58.476562 178.46875 64.773438 177.953125 66.648438 C 177.394531 68.847656 175.855469 71.148438 174.046875 72.597656 C 172.632812 73.710938 169.484375 75.308594 167.382812 75.964844 C 164.992188 76.726562 163.160156 77.019531 159.816406 77.210938 C 155.226562 77.460938 154.25 77.269531 153.417969 75.953125 C 152.980469 75.25 152.953125 74.574219 152.953125 61.890625 C 152.953125 52.953125 153.027344 48.53125 153.199219 48.457031 C 153.320312 48.398438 153.6875 48.339844 154.003906 48.339844 C 154.808594 48.339844 156.128906 47.898438 158.082031 46.960938 C 159.035156 46.523438 159.863281 46.15625 159.9375 46.140625 C 160.035156 46.140625 160.15625 46.289062 160.230469 46.464844 Z M 209.691406 46.800781 C 211.449219 47.167969 212.597656 47.59375 213.550781 48.25 C 214.941406 49.203125 216.066406 50.535156 216.210938 51.445312 C 216.308594 51.972656 216.261719 52.164062 216.113281 52.015625 C 215.941406 51.871094 215.773438 52.015625 215.480469 52.617188 C 214.867188 53.890625 213.378906 55.078125 210.914062 56.277344 C 209.71875 56.851562 208.742188 57.347656 208.742188 57.363281 C 208.742188 57.378906 209.058594 57.378906 209.449219 57.363281 C 209.839844 57.363281 210.109375 57.304688 210.058594 57.246094 C 210.011719 57.203125 210.179688 57.113281 210.449219 57.054688 C 210.71875 57.011719 210.9375 56.910156 210.9375 56.835938 C 210.9375 56.761719 211.183594 56.660156 211.5 56.601562 C 211.792969 56.542969 212.648438 56.117188 213.402344 55.648438 C 214.574219 54.917969 214.867188 54.609375 215.453125 53.539062 C 216.285156 52.015625 216.675781 51.914062 216.429688 53.277344 C 216.210938 54.609375 215.550781 55.269531 213.5 56.21875 C 209.230469 58.199219 205.761719 59.324219 201.320312 60.132812 L 199.171875 60.527344 L 199.269531 62.183594 C 199.367188 63.675781 199.4375 63.925781 200.171875 64.804688 C 201.050781 65.886719 202.269531 66.578125 203.734375 66.8125 C 205.054688 67.03125 206.203125 66.914062 208.253906 66.34375 C 210.304688 65.785156 212.085938 64.703125 213.625 63.132812 C 214.527344 62.210938 216.113281 59.574219 216.796875 57.90625 C 216.992188 57.4375 217.238281 57.214844 217.824219 57.039062 C 218.554688 56.820312 218.605469 56.820312 219.191406 57.1875 C 221.460938 58.550781 218.457031 64.085938 213.964844 66.871094 C 212.085938 68.027344 211.207031 68.394531 210.9375 68.113281 C 210.792969 67.96875 210.71875 68.011719 210.644531 68.277344 C 210.523438 68.832031 207.105469 69.84375 204.710938 70.019531 C 198.632812 70.488281 194.3125 68.6875 192.335938 64.890625 C 191.796875 63.851562 191.773438 63.601562 191.820312 59.984375 C 191.847656 56.441406 191.894531 56.074219 192.480469 54.742188 C 192.824219 53.964844 193.433594 52.910156 193.847656 52.398438 C 195.191406 50.742188 198.265625 48.542969 200.511719 47.636719 C 203.148438 46.550781 206.910156 46.214844 209.691406 46.800781 Z M 117.796875 49.21875 C 119.261719 49.421875 120.484375 50.273438 120.851562 51.355469 C 121.117188 52.105469 121.117188 52.351562 120.753906 53.171875 C 120.289062 54.242188 119.824219 54.710938 118.652344 55.179688 C 117.480469 55.664062 116.429688 55.738281 114.867188 55.445312 C 112.378906 54.960938 111.304688 53.714844 111.867188 51.855469 C 112.183594 50.742188 113.207031 49.863281 114.746094 49.394531 C 115.941406 49.042969 116.359375 49.011719 117.796875 49.21875 Z M 63.378906 52.703125 C 64.648438 53.203125 64.183594 54.742188 62.425781 55.914062 C 61.867188 56.292969 61.476562 56.351562 61.671875 56.042969 C 61.742188 55.925781 61.695312 55.808594 61.574219 55.75 C 61.304688 55.664062 56.25 57.671875 55.445312 58.210938 C 54.664062 58.710938 54.957031 58.695312 55.957031 58.183594 C 56.859375 57.714844 57.886719 57.347656 58.910156 57.128906 C 59.300781 57.054688 59.546875 56.921875 59.472656 56.863281 C 59.398438 56.792969 59.496094 56.734375 59.691406 56.734375 C 60.253906 56.734375 59.984375 57.039062 59.082031 57.40625 C 57.082031 58.242188 55.8125 58.988281 55.324219 59.617188 C 54.859375 60.234375 54.835938 60.511719 54.90625 63.867188 C 54.933594 65.84375 54.980469 73.183594 55.003906 80.183594 L 55.054688 92.898438 L 56.371094 93.601562 L 57.691406 94.292969 L 55.882812 94.554688 C 53.125 94.949219 47.707031 96.152344 44.3125 97.117188 L 41.261719 97.984375 L 41.261719 97.105469 C 41.261719 95.992188 41.554688 95.726562 43.996094 94.597656 C 46.09375 93.617188 46.828125 92.988281 47.511719 91.625 C 47.925781 90.804688 47.949219 89.675781 48.023438 76.316406 C 48.097656 59.910156 48.121094 59.765625 49.683594 58.945312 C 50.511719 58.492188 50.539062 58.476562 50 58.386719 C 49.683594 58.34375 48.21875 58.300781 46.730469 58.300781 C 43.433594 58.300781 41.480469 58.609375 39.699219 59.429688 C 38.136719 60.160156 37.550781 60.847656 37.402344 62.183594 C 37.257812 63.589844 37.621094 64.21875 38.867188 64.703125 C 40.257812 65.257812 41.75 65.242188 43.726562 64.628906 C 44.898438 64.261719 45.289062 64.203125 45.460938 64.335938 C 45.753906 64.628906 45.703125 64.703125 44.75 65.347656 C 43.675781 66.0625 41.945312 66.605469 39.941406 66.871094 C 38.722656 67.03125 38.625 67.074219 39.308594 67.074219 C 39.769531 67.089844 40.550781 67.03125 40.992188 66.941406 C 41.894531 66.796875 42.335938 66.871094 41.75 67.089844 C 41.429688 67.207031 41.457031 67.234375 41.796875 67.234375 C 42.015625 67.234375 42.261719 67.164062 42.308594 67.089844 C 42.382812 67 42.40625 67.015625 42.382812 67.117188 C 42.359375 67.222656 41.847656 67.398438 41.261719 67.515625 C 39.113281 67.925781 35.230469 67.234375 33.277344 66.078125 C 31.8125 65.230469 31.226562 64.46875 31.078125 63.207031 C 30.957031 62.359375 31.054688 61.960938 31.496094 61.171875 C 32.421875 59.472656 34.691406 57.789062 36.988281 57.085938 C 38.792969 56.542969 39.796875 56.46875 46.753906 56.46875 L 53.589844 56.46875 L 55.664062 55.957031 C 58.59375 55.222656 61.183594 54.15625 62.0625 53.289062 C 62.816406 52.574219 62.914062 52.515625 63.378906 52.703125 Z M 149.292969 54.667969 C 149.121094 55.019531 148.902344 56.117188 148.828125 57.128906 C 148.753906 58.210938 148.558594 59.238281 148.339844 59.617188 C 148.121094 59.984375 148 60.101562 148.070312 59.898438 C 148.316406 59.105469 147.828125 59.253906 146.679688 60.308594 C 146.3125 60.644531 145.410156 61.316406 144.652344 61.816406 C 143.921875 62.328125 143.3125 62.78125 143.3125 62.855469 C 143.3125 63.046875 141.699219 63.179688 140.773438 63.074219 C 140.308594 63.015625 139.671875 62.855469 139.355469 62.695312 L 138.792969 62.402344 L 139.574219 62.007812 C 141.992188 60.730469 142.261719 59.28125 140.257812 58.269531 C 139.308594 57.773438 137.183594 57.390625 135.988281 57.496094 C 134.082031 57.671875 132.152344 58.417969 131.542969 59.207031 C 130.980469 59.910156 130.785156 60.351562 131.03125 60.351562 C 131.152344 60.351562 131.371094 60.058594 131.566406 59.707031 C 131.8125 59.179688 133.300781 58.023438 133.300781 58.34375 C 133.300781 58.402344 133.910156 58.285156 134.667969 58.082031 C 136.769531 57.523438 137.378906 57.625 135.523438 58.226562 C 132.617188 59.164062 131.8125 59.898438 131.640625 61.757812 C 131.542969 62.914062 131.542969 62.945312 132.300781 63.457031 C 133.179688 64.070312 134.9375 64.539062 138.769531 65.183594 C 142.089844 65.757812 143.824219 66.226562 145.214844 66.898438 C 147.121094 67.835938 148.949219 69.976562 148.78125 71.042969 C 148.707031 71.46875 148.730469 71.5 148.902344 71.191406 C 149.074219 70.882812 149.121094 70.957031 149.292969 71.675781 C 149.730469 73.710938 148.949219 75.496094 146.730469 77.535156 C 145.117188 79.042969 142.96875 80.140625 139.917969 81.050781 L 137.378906 81.8125 L 134.179688 81.8125 C 130.6875 81.8125 129.417969 81.636719 127.539062 80.875 C 126.464844 80.433594 125 79.335938 124.195312 78.367188 C 123.390625 77.386719 123.4375 75.660156 124.292969 74.546875 C 125.683594 72.773438 128.003906 71.777344 130.980469 71.660156 C 132.640625 71.601562 132.789062 71.617188 133.519531 72.011719 C 134.570312 72.582031 134.667969 73.242188 133.742188 73.445312 C 133.15625 73.5625 132.984375 73.535156 132.542969 73.257812 C 132.152344 73.007812 131.8125 72.949219 131.152344 72.976562 C 130.324219 73.023438 130.199219 73.09375 129.46875 73.960938 C 128.222656 75.410156 128.441406 76.390625 130.273438 77.738281 C 131.542969 78.660156 132.789062 79.011719 134.886719 79.011719 C 136.9375 79 138.011719 78.75 139.476562 77.945312 C 140.722656 77.253906 141.429688 76.363281 141.847656 75.042969 C 142.140625 73.988281 141.945312 73.300781 140.96875 72.214844 C 140.136719 71.277344 138.597656 70.722656 134.644531 69.859375 C 128.859375 68.613281 128.199219 68.421875 126.683594 67.515625 C 122.582031 65.054688 123.363281 60.894531 128.539062 57.773438 C 129.613281 57.128906 131.105469 56.382812 131.859375 56.132812 C 135.863281 54.785156 140.308594 54.976562 143.726562 56.644531 C 144.433594 56.996094 145.070312 57.273438 145.117188 57.273438 C 145.167969 57.273438 145.335938 56.820312 145.507812 56.265625 C 145.65625 55.707031 145.921875 55.136719 146.070312 55.003906 C 146.289062 54.828125 148.488281 54.242188 149.585938 54.066406 C 149.609375 54.050781 149.488281 54.332031 149.292969 54.667969 Z M 61.28125 56.453125 C 61.28125 56.5 61.183594 56.570312 61.035156 56.617188 C 60.914062 56.660156 60.792969 56.628906 60.792969 56.558594 C 60.792969 56.46875 60.914062 56.394531 61.035156 56.394531 C 61.183594 56.394531 61.28125 56.425781 61.28125 56.453125 Z M 119.996094 58.007812 C 119.898438 58.09375 119.972656 58.257812 120.117188 58.386719 C 120.363281 58.550781 120.410156 61.1875 120.335938 70.003906 C 120.238281 81.253906 120.238281 81.414062 120.726562 81.738281 C 120.996094 81.914062 121.632812 82.191406 122.144531 82.351562 C 123.121094 82.644531 123.511719 82.984375 123.121094 83.21875 C 122.804688 83.40625 115.355469 84.578125 113.648438 84.695312 L 112.914062 84.742188 L 112.769531 82.542969 C 112.671875 81.328125 112.597656 76.097656 112.574219 70.898438 C 112.550781 60.367188 112.621094 60.789062 110.9375 60.789062 C 110.472656 60.789062 110.109375 60.835938 110.109375 60.894531 C 110.109375 61.214844 108.546875 65.566406 108.03125 66.648438 C 107.714844 67.339844 107.277344 68.4375 107.082031 69.109375 C 106.859375 69.769531 106.46875 70.855469 106.175781 71.527344 C 105.910156 72.1875 105.371094 73.550781 104.980469 74.558594 C 104.027344 77.09375 103.101562 79.351562 102.296875 81.078125 C 101.90625 81.882812 101.515625 82.792969 101.441406 83.101562 C 101.34375 83.394531 101.171875 83.6875 101.074219 83.714844 C 100.953125 83.757812 100.953125 83.582031 101.097656 83.320312 C 101.222656 83.054688 101.320312 82.734375 101.320312 82.617188 C 101.320312 82.425781 101.292969 82.425781 101.050781 82.617188 C 100.878906 82.777344 100.855469 82.574219 100.976562 81.957031 C 101.050781 81.472656 101.074219 81.109375 101 81.152344 C 100.878906 81.226562 100 83.277344 99 85.839844 L 98.851562 86.207031 L 99.21875 85.839844 C 99.414062 85.632812 99.609375 85.339844 99.609375 85.179688 L 99.632812 84.886719 L 99.855469 85.179688 C 100.148438 85.589844 100.148438 85.722656 99.828125 85.605469 C 99.632812 85.53125 99.585938 85.632812 99.683594 85.925781 C 99.902344 86.644531 99.511719 86.96875 98.121094 87.214844 C 96.410156 87.523438 95.753906 87.507812 94.605469 87.113281 C 93.359375 86.6875 92.75 86.015625 91.96875 84.242188 C 91.332031 82.820312 91.136719 82.234375 89.355469 76.609375 C 86.695312 68.171875 86.132812 66.738281 85.179688 65.59375 C 84.59375 64.921875 83.496094 64.4375 82.25 64.351562 C 81.152344 64.261719 81.105469 64 82.179688 63.835938 C 88.5 62.886719 92.53125 62.34375 92.53125 62.460938 C 92.53125 63.207031 94.3125 68.746094 94.433594 68.378906 C 94.484375 68.230469 94.335938 67.617188 94.140625 67 C 93.921875 66.386719 93.75 65.710938 93.773438 65.492188 C 93.800781 64.980469 95.949219 71.953125 96.289062 73.679688 C 96.410156 74.28125 96.410156 74.296875 96.167969 73.855469 C 96.046875 73.609375 95.875 73.386719 95.824219 73.386719 C 95.753906 73.386719 95.753906 73.609375 95.824219 73.855469 C 95.875 74.121094 96.117188 75.160156 96.3125 76.171875 C 96.730469 78.089844 97.167969 79.304688 97.339844 79 C 97.414062 78.894531 97.289062 78.207031 97.070312 77.460938 C 96.851562 76.714844 96.632812 75.703125 96.558594 75.21875 C 96.460938 74.441406 96.484375 74.414062 96.679688 74.925781 C 96.800781 75.25 97.242188 76.597656 97.65625 77.929688 C 98.070312 79.246094 98.488281 80.390625 98.585938 80.449219 C 98.683594 80.507812 99.535156 78.28125 100.441406 75.46875 C 101.367188 72.671875 102.464844 69.433594 102.929688 68.261719 C 104.199219 64.921875 104.566406 63.617188 104.394531 63.191406 C 104.152344 62.621094 103.027344 62.019531 101.78125 61.800781 C 101.195312 61.699219 100.609375 61.566406 100.488281 61.507812 C 100.074219 61.289062 101.683594 60.878906 104.859375 60.410156 C 106.664062 60.144531 108.351562 59.851562 108.59375 59.78125 C 108.863281 59.691406 110.253906 59.472656 111.71875 59.265625 C 113.183594 59.078125 115.480469 58.679688 116.820312 58.402344 C 119.359375 57.859375 120.265625 57.757812 119.996094 58.007812 Z M 78.148438 65.417969 C 80.03125 65.742188 81.324219 66.429688 82.300781 67.617188 C 82.960938 68.40625 83.128906 68.832031 83.300781 70.136719 C 83.519531 71.660156 83.375 81.429688 83.105469 83.933594 C 82.835938 86.335938 83.8125 87.683594 86.132812 88.082031 C 87.453125 88.316406 87.941406 88.652344 87.402344 88.972656 C 86.816406 89.324219 82.128906 90.085938 80.617188 90.085938 C 79.054688 90.085938 77.515625 89.691406 76.832031 89.136719 C 76.613281 88.945312 76.292969 88.433594 76.171875 88.023438 C 76.027344 87.582031 75.929688 83.746094 75.902344 78.96875 C 75.902344 74.414062 75.832031 70.238281 75.707031 69.683594 C 75.488281 68.496094 75.097656 68.1875 73.78125 68.203125 C 72.753906 68.21875 70.949219 68.714844 70.605469 69.082031 C 70.484375 69.214844 70.289062 69.300781 70.167969 69.300781 C 70.042969 69.285156 69.945312 69.359375 69.945312 69.449219 C 69.945312 69.535156 69.75 69.683594 69.507812 69.800781 C 69.261719 69.902344 68.578125 70.53125 67.96875 71.207031 C 67.089844 72.171875 66.820312 72.625 66.722656 73.34375 C 66.625 74.003906 66.675781 74.265625 66.871094 74.265625 C 67.015625 74.265625 67.261719 74.121094 67.382812 73.929688 C 67.53125 73.726562 67.601562 75.351562 67.554688 78.441406 C 67.53125 81.09375 67.40625 83.363281 67.308594 83.464844 C 67.1875 83.570312 67.113281 85.003906 67.140625 86.660156 C 67.164062 90.058594 67.238281 90.261719 68.824219 91.1875 C 69.359375 91.492188 69.824219 91.800781 69.824219 91.84375 C 69.824219 91.960938 69.042969 92.125 63.378906 93.164062 C 60.71875 93.660156 58.496094 94.027344 58.421875 93.984375 C 58.351562 93.953125 58.714844 93.574219 59.179688 93.164062 L 60.058594 92.402344 L 60.058594 81.53125 C 60.058594 74.910156 59.960938 70.488281 59.816406 70.179688 C 59.425781 69.34375 58.007812 68.640625 56.273438 68.40625 L 55.542969 68.304688 L 56.445312 68.070312 C 56.957031 67.9375 58.496094 67.691406 59.863281 67.527344 C 62.0625 67.25 64.625 66.796875 65.992188 66.429688 C 66.40625 66.328125 66.429688 66.414062 66.261719 68.042969 C 66.066406 69.929688 66.210938 70.078125 67.164062 68.949219 C 67.824219 68.1875 69.996094 66.8125 71.632812 66.152344 C 72.828125 65.652344 74.902344 65.214844 76.148438 65.199219 C 76.488281 65.183594 77.394531 65.289062 78.148438 65.417969 Z M 44.777344 66.371094 C 44.53125 66.53125 44.117188 66.738281 43.871094 66.824219 C 43.457031 66.941406 43.457031 66.929688 43.703125 66.648438 C 43.847656 66.472656 44.214844 66.285156 44.507812 66.210938 C 45.289062 66.019531 45.289062 66.035156 44.777344 66.371094 Z M 66.578125 68.4375 C 66.503906 68.539062 66.457031 68.464844 66.457031 68.261719 C 66.457031 68.054688 66.503906 67.984375 66.578125 68.070312 C 66.625 68.171875 66.625 68.347656 66.578125 68.4375 Z M 71.507812 69.167969 C 71.046875 69.433594 70.410156 69.84375 70.117188 70.09375 L 69.554688 70.53125 L 69.921875 70.078125 C 70.265625 69.652344 71.851562 68.699219 72.191406 68.699219 C 72.289062 68.699219 71.972656 68.921875 71.507812 69.167969 Z M 69.164062 71.117188 C 68.945312 71.394531 68.726562 71.601562 68.652344 71.570312 C 68.554688 71.5 69.289062 70.605469 69.457031 70.605469 C 69.53125 70.605469 69.386719 70.839844 69.164062 71.117188 Z M 68.261719 72.320312 C 67.824219 72.800781 67.75 72.699219 68.117188 72.128906 C 68.261719 71.910156 68.433594 71.777344 68.507812 71.820312 C 68.578125 71.863281 68.480469 72.085938 68.261719 72.320312 Z M 68.261719 72.320312 "/>
<path style=" stroke:none;fill-rule:nonzero;fill:rgb(0%,0%,0%);fill-opacity:1;" d="M 164.964844 54.34375 C 164.746094 54.507812 164.40625 54.636719 164.234375 54.636719 C 164.0625 54.636719 163.671875 54.800781 163.402344 54.988281 C 163.136719 55.179688 162.792969 55.355469 162.648438 55.386719 C 162.257812 55.472656 160.15625 57.421875 160.15625 57.683594 C 160.179688 57.816406 160.402344 57.671875 160.667969 57.347656 C 161.402344 56.453125 161.597656 56.441406 161.109375 57.304688 C 160.71875 57.992188 160.667969 58.902344 160.5 65.257812 C 160.425781 69.214844 160.351562 72.625 160.351562 72.859375 C 160.351562 73.519531 161.402344 74.046875 162.671875 74.03125 C 166.015625 73.988281 168.847656 71.46875 169.777344 67.632812 C 170.019531 66.648438 170.167969 65.066406 170.167969 63.265625 C 170.167969 57.582031 169.238281 54.976562 166.992188 54.273438 C 166.039062 53.980469 165.480469 53.992188 164.964844 54.34375 Z M 164.964844 54.34375 "/>
<path style=" stroke:none;fill-rule:nonzero;fill:rgb(0%,0%,0%);fill-opacity:1;" d="M 159.59375 58.300781 C 159.328125 59.046875 159.691406 63.191406 159.960938 62.621094 C 160.207031 62.109375 160.207031 59.414062 159.9375 58.445312 L 159.765625 57.789062 Z M 159.59375 58.300781 "/>
<path style=" stroke:none;fill-rule:nonzero;fill:rgb(0%,0%,0%);fill-opacity:1;" d="M 159.449219 63.367188 C 159.449219 63.53125 159.523438 63.574219 159.59375 63.457031 C 159.667969 63.355469 159.644531 63.222656 159.570312 63.179688 C 159.496094 63.121094 159.425781 63.207031 159.449219 63.367188 Z M 159.449219 63.367188 "/>
<path style=" stroke:none;fill-rule:nonzero;fill:rgb(0%,0%,0%);fill-opacity:1;" d="M 174.828125 70.179688 C 174.511719 70.589844 174.339844 70.957031 174.390625 70.984375 C 174.511719 71.058594 175.148438 70.296875 175.414062 69.753906 C 175.707031 69.183594 175.367188 69.417969 174.828125 70.179688 Z M 174.828125 70.179688 "/>
<path style=" stroke:none;fill-rule:nonzero;fill:rgb(0%,0%,0%);fill-opacity:1;" d="M 159.984375 71.628906 C 159.984375 72.070312 160.035156 72.261719 160.082031 72.027344 C 160.132812 71.804688 160.132812 71.453125 160.082031 71.21875 C 160.035156 71 159.984375 71.191406 159.984375 71.628906 Z M 159.984375 71.628906 "/>
<path style=" stroke:none;fill-rule:nonzero;fill:rgb(0%,0%,0%);fill-opacity:1;" d="M 167.699219 74.808594 C 167.382812 75.042969 167.40625 75.058594 167.796875 74.867188 C 168.019531 74.765625 168.214844 74.648438 168.214844 74.617188 C 168.214844 74.5 168.019531 74.574219 167.699219 74.808594 Z M 167.699219 74.808594 "/>
<path style=" stroke:none;fill-rule:nonzero;fill:rgb(0%,0%,0%);fill-opacity:1;" d="M 164.917969 75.660156 C 163.722656 76.011719 162.792969 76.304688 162.867188 76.304688 C 163.429688 76.347656 166.578125 75.511719 167.015625 75.191406 C 167.382812 74.941406 167.457031 74.925781 164.917969 75.660156 Z M 164.917969 75.660156 "/>
<path style=" stroke:none;fill-rule:nonzero;fill:rgb(0%,0%,0%);fill-opacity:1;" d="M 203.734375 49.085938 C 201.269531 49.847656 198.902344 52.46875 199 54.390625 C 199 54.695312 199.144531 54.507812 199.390625 53.832031 C 199.585938 53.261719 200.050781 52.410156 200.441406 51.929688 C 201.148438 51.035156 203.808594 49.21875 204.417969 49.21875 C 204.589844 49.21875 204.957031 49.117188 205.226562 49 C 205.6875 48.792969 205.6875 48.792969 205.199219 48.792969 C 204.933594 48.792969 204.273438 48.925781 203.734375 49.085938 Z M 203.734375 49.085938 "/>
<path style=" stroke:none;fill-rule:nonzero;fill:rgb(0%,0%,0%);fill-opacity:1;" d="M 205.152344 49.511719 C 203.808594 49.863281 202.101562 50.902344 201.34375 51.8125 C 200.511719 52.792969 199.78125 54.742188 199.585938 56.441406 C 199.414062 57.800781 199.4375 57.890625 199.855469 57.816406 C 200.121094 57.773438 200.804688 57.65625 201.417969 57.566406 C 203.539062 57.246094 205.957031 56.441406 207.105469 55.664062 C 209.71875 53.921875 210.058594 51.019531 207.835938 49.613281 C 207.082031 49.144531 206.542969 49.128906 205.152344 49.511719 Z M 205.152344 49.511719 "/>
<path style=" stroke:none;fill-rule:nonzero;fill:rgb(0%,0%,0%);fill-opacity:1;" d="M 198.730469 56.585938 C 198.730469 57.390625 198.828125 57.859375 199 57.859375 C 199.171875 57.859375 199.195312 57.480469 199.074219 56.644531 C 199 55.984375 198.878906 55.414062 198.828125 55.386719 C 198.78125 55.355469 198.730469 55.898438 198.730469 56.585938 Z M 198.730469 56.585938 "/>
<path style=" stroke:none;fill-rule:nonzero;fill:rgb(0%,0%,0%);fill-opacity:1;" d="M 205.566406 58.375 C 205.226562 58.492188 205.078125 58.578125 205.226562 58.59375 C 205.347656 58.59375 205.6875 58.492188 205.957031 58.375 C 206.542969 58.109375 206.347656 58.09375 205.566406 58.375 Z M 205.566406 58.375 "/>
<path style=" stroke:none;fill-rule:nonzero;fill:rgb(0%,0%,0%);fill-opacity:1;" d="M 218.410156 59.882812 C 218.359375 59.941406 218.117188 60.410156 217.894531 60.9375 C 217.480469 61.902344 216.382812 63.222656 214.894531 64.527344 L 214.0625 65.257812 L 214.992188 64.671875 C 215.503906 64.351562 216.039062 64.085938 216.136719 64.085938 C 216.503906 64.085938 217.285156 63.355469 217.285156 63.015625 C 217.285156 62.828125 217.382812 62.722656 217.53125 62.769531 C 217.824219 62.871094 218.261719 62.242188 218.261719 61.726562 C 218.261719 61.480469 218.359375 61.390625 218.578125 61.464844 C 218.800781 61.539062 218.800781 61.523438 218.605469 61.390625 C 218.457031 61.289062 218.410156 60.9375 218.507812 60.496094 C 218.652344 59.78125 218.652344 59.664062 218.410156 59.882812 Z M 218.410156 59.882812 "/>
<path style=" stroke:none;fill-rule:nonzero;fill:rgb(0%,0%,0%);fill-opacity:1;" d="M 211.328125 66.871094 C 210.082031 67.585938 208.691406 68.1875 207.300781 68.628906 C 206.152344 68.992188 205.542969 69.242188 205.933594 69.183594 C 206.347656 69.125 206.910156 69.082031 207.203125 69.066406 C 207.472656 69.066406 207.667969 69.023438 207.59375 68.949219 C 207.542969 68.890625 207.8125 68.804688 208.226562 68.757812 C 208.644531 68.699219 208.984375 68.613281 208.984375 68.539062 C 208.984375 68.261719 210.15625 67.675781 210.546875 67.761719 C 210.816406 67.820312 210.9375 67.777344 210.9375 67.574219 C 210.9375 67.410156 211.351562 67.058594 211.867188 66.78125 C 212.746094 66.3125 213.550781 65.757812 213.355469 65.769531 C 213.304688 65.785156 212.402344 66.269531 211.328125 66.871094 Z M 211.328125 66.871094 "/>
<path style=" stroke:none;fill-rule:nonzero;fill:rgb(0%,0%,0%);fill-opacity:1;" d="M 119.507812 53.335938 C 119.410156 53.511719 118.898438 53.949219 118.335938 54.300781 C 117.457031 54.886719 117.628906 55.046875 118.628906 54.578125 C 119.042969 54.390625 119.972656 53.1875 119.800781 53.070312 C 119.726562 53.042969 119.605469 53.144531 119.507812 53.335938 Z M 119.507812 53.335938 "/>
<path style=" stroke:none;fill-rule:nonzero;fill:rgb(0%,0%,0%);fill-opacity:1;" d="M 41.210938 58.550781 C 41.382812 58.59375 41.601562 58.578125 41.675781 58.535156 C 41.773438 58.492188 41.625 58.445312 41.359375 58.460938 C 41.089844 58.460938 41.015625 58.503906 41.210938 58.550781 Z M 41.210938 58.550781 "/>
<path style=" stroke:none;fill-rule:nonzero;fill:rgb(0%,0%,0%);fill-opacity:1;" d="M 39.0625 58.972656 L 38.453125 59.195312 L 39.0625 59.089844 C 39.40625 59.046875 39.769531 58.945312 39.917969 58.871094 C 40.285156 58.667969 39.746094 58.726562 39.0625 58.972656 Z M 39.0625 58.972656 "/>
<path style=" stroke:none;fill-rule:nonzero;fill:rgb(0%,0%,0%);fill-opacity:1;" d="M 37.109375 59.96875 C 36.425781 60.570312 36.207031 60.9375 36.5 60.9375 C 36.769531 60.9375 37.574219 60.4375 37.453125 60.320312 C 37.378906 60.261719 37.425781 60.203125 37.550781 60.203125 C 37.746094 60.203125 38.332031 59.589844 38.332031 59.398438 C 38.332031 59.148438 37.746094 59.429688 37.109375 59.96875 Z M 37.109375 59.96875 "/>
<path style=" stroke:none;fill-rule:nonzero;fill:rgb(0%,0%,0%);fill-opacity:1;" d="M 46.167969 95.757812 C 45.386719 96.035156 45.191406 96.167969 45.410156 96.296875 C 45.605469 96.414062 45.777344 96.386719 46.019531 96.195312 C 46.242188 96.003906 46.386719 95.976562 46.535156 96.109375 C 46.65625 96.238281 46.777344 96.226562 46.972656 96.0625 C 47.121094 95.945312 47.386719 95.816406 47.582031 95.785156 C 47.851562 95.726562 47.851562 95.683594 47.558594 95.550781 C 47.289062 95.40625 46.996094 95.464844 46.167969 95.757812 Z M 46.167969 95.757812 "/>
<path style=" stroke:none;fill-rule:nonzero;fill:rgb(0%,0%,0%);fill-opacity:1;" d="M 144.261719 78.03125 L 143.675781 78.441406 L 144.359375 78.089844 C 144.972656 77.753906 145.140625 77.636719 144.945312 77.636719 C 144.898438 77.636719 144.605469 77.8125 144.261719 78.03125 Z M 144.261719 78.03125 "/>
<path style=" stroke:none;fill-rule:nonzero;fill:rgb(0%,0%,0%);fill-opacity:1;" d="M 142.335938 79.117188 C 141.1875 79.703125 139.355469 80.300781 137.5 80.710938 C 136.671875 80.902344 136.011719 81.078125 136.058594 81.109375 C 136.109375 81.136719 136.449219 81.09375 136.816406 81.003906 C 137.476562 80.859375 138.550781 80.699219 139.085938 80.683594 C 139.257812 80.667969 139.429688 80.582031 139.503906 80.464844 C 139.574219 80.359375 139.746094 80.273438 139.894531 80.273438 C 140.453125 80.273438 143.3125 78.953125 143.3125 78.707031 C 143.3125 78.617188 143.214844 78.660156 142.335938 79.117188 Z M 142.335938 79.117188 "/>
<path style=" stroke:none;fill-rule:nonzero;fill:rgb(0%,0%,0%);fill-opacity:1;" d="M 119.53125 59.792969 C 119.3125 61.757812 119.554688 72.671875 119.847656 72.847656 C 119.996094 72.933594 120.070312 70.253906 120.09375 65.710938 C 120.117188 61.609375 120.019531 58.445312 119.898438 58.445312 C 119.777344 58.445312 119.605469 59.0625 119.53125 59.792969 Z M 119.53125 59.792969 "/>
<path style=" stroke:none;fill-rule:nonzero;fill:rgb(0%,0%,0%);fill-opacity:1;" d="M 107.203125 65.710938 C 107.203125 65.875 107.277344 65.917969 107.347656 65.800781 C 107.421875 65.699219 107.398438 65.566406 107.324219 65.523438 C 107.25 65.464844 107.179688 65.550781 107.203125 65.710938 Z M 107.203125 65.710938 "/>
<path style=" stroke:none;fill-rule:nonzero;fill:rgb(0%,0%,0%);fill-opacity:1;" d="M 106.957031 66.296875 C 106.957031 66.460938 107.03125 66.503906 107.105469 66.386719 C 107.179688 66.285156 107.152344 66.152344 107.082031 66.109375 C 107.007812 66.050781 106.933594 66.136719 106.957031 66.296875 Z M 106.957031 66.296875 "/>
<path style=" stroke:none;fill-rule:nonzero;fill:rgb(0%,0%,0%);fill-opacity:1;" d="M 106.714844 66.882812 C 106.714844 67.046875 106.789062 67.089844 106.859375 66.972656 C 106.933594 66.871094 106.910156 66.738281 106.835938 66.695312 C 106.761719 66.636719 106.691406 66.722656 106.714844 66.882812 Z M 106.714844 66.882812 "/>
<path style=" stroke:none;fill-rule:nonzero;fill:rgb(0%,0%,0%);fill-opacity:1;" d="M 94.605469 69.460938 C 94.726562 70.355469 95.214844 71.835938 95.335938 71.746094 C 95.386719 71.71875 95.214844 71.015625 94.945312 70.164062 C 94.679688 69.199219 94.53125 68.933594 94.605469 69.460938 Z M 94.605469 69.460938 "/>
<path style=" stroke:none;fill-rule:nonzero;fill:rgb(0%,0%,0%);fill-opacity:1;" d="M 105.003906 71.570312 C 105.003906 71.734375 105.078125 71.777344 105.152344 71.660156 C 105.226562 71.558594 105.199219 71.425781 105.128906 71.382812 C 105.054688 71.324219 104.980469 71.410156 105.003906 71.570312 Z M 105.003906 71.570312 "/>
<path style=" stroke:none;fill-rule:nonzero;fill:rgb(0%,0%,0%);fill-opacity:1;" d="M 104.761719 72.15625 C 104.761719 72.320312 104.835938 72.363281 104.90625 72.246094 C 104.980469 72.144531 104.957031 72.011719 104.882812 71.96875 C 104.808594 71.910156 104.738281 71.996094 104.761719 72.15625 Z M 104.761719 72.15625 "/>
<path style=" stroke:none;fill-rule:nonzero;fill:rgb(0%,0%,0%);fill-opacity:1;" d="M 102.808594 76.699219 C 102.660156 77.167969 102.589844 77.5625 102.636719 77.59375 C 102.6875 77.636719 102.882812 77.285156 103.027344 76.832031 C 103.175781 76.375 103.273438 75.964844 103.199219 75.9375 C 103.148438 75.90625 102.980469 76.246094 102.808594 76.699219 Z M 102.808594 76.699219 "/>
<path style=" stroke:none;fill-rule:nonzero;fill:rgb(0%,0%,0%);fill-opacity:1;" d="M 99.144531 86.660156 C 99.144531 86.820312 99.21875 86.863281 99.292969 86.746094 C 99.367188 86.644531 99.339844 86.511719 99.269531 86.46875 C 99.195312 86.410156 99.121094 86.5 99.144531 86.660156 Z M 99.144531 86.660156 "/>
<path style=" stroke:none;fill-rule:nonzero;fill:rgb(0%,0%,0%);fill-opacity:1;" d="M 82.8125 69.800781 C 82.8125 70.035156 82.863281 70.121094 82.933594 69.976562 C 82.984375 69.84375 82.984375 69.636719 82.933594 69.535156 C 82.863281 69.449219 82.8125 69.550781 82.8125 69.800781 Z M 82.8125 69.800781 "/>
<path style=" stroke:none;fill-rule:nonzero;fill:rgb(0%,0%,0%);fill-opacity:1;" d="M 131.105469 36.136719 C 130.445312 36.285156 129.882812 36.664062 129.882812 36.972656 C 129.882812 37.441406 130.785156 38.21875 131.421875 38.304688 C 132.421875 38.464844 133.742188 38.027344 133.984375 37.46875 C 134.449219 36.460938 132.910156 35.742188 131.105469 36.136719 Z M 131.105469 36.136719 "/>
<path style=" stroke:none;fill-rule:nonzero;fill:rgb(0%,0%,0%);fill-opacity:1;" d="M 138.28125 37.925781 C 137.0625 38.261719 136.476562 38.730469 136.476562 39.359375 C 136.476562 40.0625 137.207031 40.429688 138.550781 40.429688 C 139.941406 40.429688 140.820312 40.179688 141.261719 39.683594 C 141.796875 39.050781 141.675781 38.554688 140.894531 38.070312 C 140.0625 37.574219 139.648438 37.558594 138.28125 37.925781 Z M 138.28125 37.925781 "/>
<path style=" stroke:none;fill-rule:nonzero;fill:rgb(0%,0%,0%);fill-opacity:1;" d="M 203.566406 38.480469 C 201.636719 39.199219 202.492188 40.867188 204.761719 40.867188 C 205.882812 40.867188 207.277344 40.078125 207.277344 39.433594 C 207.277344 38.480469 205.078125 37.925781 203.566406 38.480469 Z M 203.566406 38.480469 "/>
<path style=" stroke:none;fill-rule:nonzero;fill:rgb(0%,0%,0%);fill-opacity:1;" d="M 89.648438 51.914062 C 88.355469 52.410156 83.007812 53.40625 79.710938 53.773438 C 77.980469 53.964844 77.515625 54.097656 77.027344 54.550781 C 76.5625 54.976562 76.734375 55.515625 77.539062 56.03125 C 77.980469 56.308594 78.34375 56.394531 79.175781 56.394531 C 80.371094 56.394531 86.546875 55.3125 89.0625 54.652344 C 89.964844 54.417969 90.941406 54.183594 91.234375 54.140625 C 91.527344 54.082031 92.066406 53.832031 92.433594 53.570312 C 92.96875 53.1875 93.042969 53.011719 92.945312 52.484375 C 92.726562 51.285156 91.722656 51.109375 89.648438 51.914062 Z M 89.648438 51.914062 "/>
<path style=" stroke:none;fill-rule:nonzero;fill:rgb(0%,0%,0%);fill-opacity:1;" d="M 208.886719 76.609375 C 207.738281 77.226562 207.667969 77.988281 208.691406 78.675781 C 209.300781 79.085938 209.496094 79.128906 210.277344 79.042969 C 211.351562 78.925781 212.402344 78.222656 212.402344 77.621094 C 212.402344 77.109375 211.328125 76.363281 210.425781 76.246094 C 209.914062 76.171875 209.570312 76.257812 208.886719 76.609375 Z M 208.886719 76.609375 "/>
<path style=" stroke:none;fill-rule:nonzero;fill:rgb(0%,0%,0%);fill-opacity:1;" d="M 186.011719 78.148438 C 184.839844 78.265625 183.226562 78.457031 182.421875 78.574219 C 180.273438 78.910156 171.507812 80.667969 166.015625 81.882812 C 163.402344 82.457031 159.71875 83.261719 157.835938 83.671875 C 148.414062 85.738281 142.140625 87.027344 137.695312 87.832031 C 136.011719 88.125 133.449219 88.59375 131.957031 88.855469 C 130.492188 89.136719 127.636719 89.617188 125.636719 89.941406 C 123.632812 90.261719 121.484375 90.671875 120.875 90.835938 C 119.410156 91.214844 114.453125 91.800781 111.695312 91.917969 C 107.8125 92.078125 106.03125 92.285156 103.003906 92.945312 C 100.707031 93.457031 99.757812 93.75 98.753906 94.261719 C 97.484375 94.90625 97.414062 94.921875 95.777344 94.921875 C 92.113281 94.921875 84.472656 95.757812 81.03125 96.519531 C 76.683594 97.5 72.925781 99.652344 71.753906 101.835938 C 71.339844 102.625 71.242188 103.066406 71.339844 103.972656 C 71.632812 107.035156 75.269531 109.144531 80.175781 109.128906 C 82.082031 109.117188 83.058594 108.894531 84.789062 108.121094 C 87.867188 106.714844 89.0625 104.589844 87.769531 102.742188 C 87.28125 102.054688 85.230469 101.570312 84.253906 101.9375 C 84.007812 102.027344 83.910156 102.449219 83.863281 103.359375 C 83.765625 105.453125 82.886719 106.304688 80.542969 106.566406 C 79.445312 106.683594 77.785156 106.289062 76.808594 105.671875 C 75.804688 105.027344 75.34375 103.886719 75.683594 102.933594 C 75.976562 102.113281 76.90625 101.042969 77.589844 100.75 C 77.832031 100.648438 78.101562 100.457031 78.175781 100.339844 C 78.441406 99.917969 83.253906 98.597656 86.183594 98.144531 C 88.429688 97.792969 95.167969 97.089844 95.386719 97.175781 C 95.410156 97.191406 95.289062 97.46875 95.09375 97.808594 C 94.554688 98.746094 94.3125 100.371094 94.53125 101.46875 C 95.042969 104.078125 99.171875 107.125 103.515625 108.121094 C 105.421875 108.558594 110.328125 108.675781 112.523438 108.324219 C 119.386719 107.253906 124.488281 103.476562 124.609375 99.390625 C 124.660156 97.441406 124 96.898438 121.851562 97.089844 C 120.972656 97.164062 120.703125 97.542969 120.460938 99.167969 C 120.265625 100.53125 119.386719 102.246094 118.457031 103.140625 C 118.042969 103.503906 117.089844 104.105469 116.308594 104.472656 C 110.914062 106.960938 105.46875 106.84375 101.269531 104.179688 C 99.414062 102.992188 98.632812 101.835938 98.632812 100.269531 C 98.632812 98.628906 100.441406 96.519531 102.222656 96.050781 C 103.296875 95.769531 106.152344 95.300781 108.277344 95.066406 C 113.011719 94.554688 125.609375 92.722656 127.417969 92.285156 C 128.078125 92.136719 130.03125 91.773438 131.761719 91.492188 C 135.011719 90.964844 142.433594 89.546875 148.070312 88.375 C 149.828125 88.007812 152.90625 87.363281 154.90625 86.9375 C 159.058594 86.074219 164.527344 84.871094 167.238281 84.226562 C 176.050781 82.148438 185.890625 80.417969 188.917969 80.417969 C 193.089844 80.417969 197.023438 81.636719 198.925781 83.523438 C 202.808594 87.421875 198.046875 92.945312 190.234375 93.632812 C 188.722656 93.765625 187.988281 93.765625 186.914062 93.617188 C 184.058594 93.238281 180.835938 91.933594 179.566406 90.613281 C 178.539062 89.558594 178.394531 88.785156 178.957031 87.390625 C 179.222656 86.71875 179.445312 86.042969 179.445312 85.914062 C 179.445312 85.722656 179.566406 85.679688 180.003906 85.765625 C 180.296875 85.808594 180.738281 85.882812 180.980469 85.898438 C 181.226562 85.914062 181.59375 86.160156 181.835938 86.425781 C 182.152344 86.804688 182.472656 86.953125 183.082031 87.027344 C 184.058594 87.144531 184.570312 87.054688 184.570312 86.777344 C 184.570312 86.660156 184.691406 86.570312 184.816406 86.570312 C 185.179688 86.570312 185.109375 85.898438 184.71875 85.707031 C 184.179688 85.445312 182.054688 85.253906 181.691406 85.445312 C 181.007812 85.78125 177.980469 85.355469 177.980469 84.929688 C 177.980469 84.871094 177.6875 84.8125 177.34375 84.8125 C 175.734375 84.8125 174.4375 86.542969 174.464844 88.621094 C 174.464844 89.722656 174.5625 90.015625 175.246094 90.878906 C 177.367188 93.601562 180.273438 95.082031 184.914062 95.800781 C 187.5 96.195312 189.574219 96.179688 192.261719 95.726562 C 195.703125 95.171875 197.339844 94.597656 199.730469 93.164062 C 202.101562 91.742188 203.003906 90.789062 203.832031 88.8125 C 205.980469 83.757812 200.488281 78.925781 191.652344 78.074219 C 189.671875 77.898438 188.648438 77.898438 186.011719 78.148438 Z M 186.011719 78.148438 "/>
<path style=" stroke:none;fill-rule:nonzero;fill:rgb(0%,0%,0%);fill-opacity:1;" d="M 163.574219 89.3125 C 163.378906 89.355469 162.328125 89.664062 161.253906 89.96875 C 160.179688 90.292969 158.324219 90.820312 157.105469 91.140625 C 143.507812 94.773438 143.628906 94.746094 143.457031 95.257812 C 143.214844 95.976562 143.652344 96.136719 145.507812 96.019531 C 147.414062 95.902344 151.929688 95.097656 154.078125 94.496094 C 156.640625 93.792969 159.886719 92.929688 162.355469 92.3125 C 165.308594 91.566406 166.015625 91.199219 166.015625 90.425781 C 166.015625 90.058594 165.871094 89.75 165.601562 89.605469 C 165.089844 89.339844 164.085938 89.195312 163.574219 89.3125 Z M 163.574219 89.3125 "/>
<path style=" stroke:none;fill-rule:nonzero;fill:rgb(0%,0%,0%);fill-opacity:1;" d="M 147.707031 96.621094 C 147.363281 96.664062 146.605469 96.753906 145.996094 96.839844 C 145.410156 96.929688 142.871094 96.988281 140.382812 96.988281 C 137.890625 96.988281 135.449219 97.046875 134.9375 97.132812 C 134.425781 97.222656 133.570312 97.515625 133.03125 97.808594 C 132.128906 98.304688 132.082031 98.363281 132.082031 99.226562 C 132.082031 99.742188 132.203125 100.210938 132.375 100.3125 C 132.691406 100.503906 134.472656 100.546875 134.914062 100.371094 C 135.058594 100.3125 135.351562 100.0625 135.570312 99.8125 L 135.960938 99.34375 L 138.597656 99.332031 C 140.039062 99.316406 141.722656 99.226562 142.335938 99.15625 C 142.945312 99.066406 145.09375 98.980469 147.09375 98.964844 C 151 98.921875 151.660156 98.832031 152.757812 98.113281 C 153.394531 97.703125 153.734375 96.914062 153.34375 96.765625 C 153.027344 96.648438 148.558594 96.53125 147.707031 96.621094 Z M 147.707031 96.621094 "/>
<path style=" stroke:none;fill-rule:nonzero;fill:rgb(0%,0%,0%);fill-opacity:1;" d="M 61.28125 100.882812 C 61.085938 100.925781 60.621094 101.132812 60.253906 101.335938 C 59.449219 101.777344 59.328125 102.613281 59.960938 103.199219 C 60.890625 104.046875 63.402344 103.960938 64.136719 103.066406 C 64.625 102.421875 64.40625 101.894531 63.355469 101.265625 C 62.574219 100.796875 62.085938 100.707031 61.28125 100.882812 Z M 61.28125 100.882812 "/>
<path style=" stroke:none;fill-rule:nonzero;fill:rgb(0%,0%,0%);fill-opacity:1;" d="M 120.777344 125.15625 C 118.675781 125.242188 116.945312 125.289062 116.945312 125.242188 C 116.945312 125.199219 116.066406 125.214844 114.992188 125.300781 C 113.722656 125.390625 113.039062 125.492188 113.039062 125.609375 C 113.039062 126.003906 118.140625 126.210938 127.5625 126.167969 C 131.59375 126.152344 136.695312 126.136719 138.917969 126.136719 C 142.796875 126.136719 142.992188 126.121094 143.605469 125.800781 C 143.996094 125.59375 144.191406 125.390625 144.09375 125.289062 C 143.871094 125.066406 132.179688 124.890625 131.957031 125.113281 C 131.859375 125.183594 131.714844 125.214844 131.617188 125.183594 C 131.175781 125.023438 124.339844 125.007812 120.777344 125.15625 Z M 120.777344 125.15625 "/>
<path style=" stroke:none;fill-rule:nonzero;fill:rgb(0%,0%,0%);fill-opacity:1;" d="M 147.21875 125.390625 C 147.21875 125.609375 147.316406 125.640625 147.902344 125.523438 C 148.265625 125.449219 149 125.332031 149.535156 125.257812 C 150.441406 125.125 150.414062 125.125 148.878906 125.125 C 147.460938 125.140625 147.21875 125.171875 147.21875 125.390625 Z M 147.21875 125.390625 "/>
<path style=" stroke:none;fill-rule:nonzero;fill:rgb(0%,0%,0%);fill-opacity:1;" d="M 107.421875 125.390625 C 106.933594 125.492188 107.03125 125.507812 107.984375 125.523438 C 108.617188 125.535156 109.132812 125.464844 109.132812 125.390625 C 109.132812 125.214844 108.300781 125.214844 107.421875 125.390625 Z M 107.421875 125.390625 "/>
</g>
</svg>
